<svg width="481" height="92" viewBox="0 0 481 92" fill="none" xmlns="http://www.w3.org/2000/svg">
<path d="M468.129 23.0239V37.7722C468.129 45.0685 462.198 51.0045 454.907 51.0045H391.224V38.4288C391.224 31.0678 387.989 24.1305 382.35 19.3945C376.718 14.6648 369.28 12.6925 361.942 13.9835C351.788 15.7722 343.765 23.801 341.978 33.9624C340.685 41.3074 342.656 48.7522 347.384 54.3874C352.117 60.0314 359.048 63.2683 366.404 63.2683H378.784C378.199 67.6237 376.123 71.6377 372.872 74.66C369.351 77.9336 364.77 79.7359 359.973 79.7359H359.038V91.9997H359.973C368.015 91.9997 375.654 88.9343 381.485 83.3677C387.075 78.0309 390.461 70.9221 391.081 63.2683H454.907C468.954 63.2683 480.383 51.8311 480.383 37.773V23.0247H468.129V23.0239ZM378.97 38.428V51.0037H366.404C362.679 51.0037 359.166 49.3633 356.768 46.5038C354.339 43.6068 353.371 39.9072 354.043 36.0887C354.926 31.0662 359.048 26.9405 364.068 26.0565C367.882 25.3808 371.578 26.3493 374.474 28.7844C377.331 31.1843 378.97 34.6996 378.97 38.4272V38.428Z" fill="#F3E008"/>
<path d="M301.302 77.5901C318.533 77.5901 332.552 63.5599 332.552 46.3151V23.0825H320.3V46.3151C320.3 56.7981 311.778 65.3271 301.303 65.3271C290.828 65.3271 282.306 56.7981 282.306 46.3151V23.0825H270.052V46.3151C270.052 63.5607 284.07 77.5901 301.302 77.5901Z" fill="#F3E008"/>
<path d="M301.302 13.3839C304.988 13.3839 307.988 10.3816 307.988 6.69237C307.988 3.00311 304.988 0 301.302 0C297.616 0 294.615 3.00231 294.615 6.69237C294.615 10.3824 297.615 13.3839 301.302 13.3839Z" fill="#F3E008"/>
<path d="M455.776 13.3839C459.463 13.3839 462.463 10.3816 462.463 6.69237C462.463 3.00311 459.463 0 455.776 0C452.088 0 449.089 3.00231 449.089 6.69237C449.089 10.3824 452.088 13.3839 455.776 13.3839Z" fill="#F3E008"/>
<path d="M110.134 68.4459V56.4863H119.623V68.4459H110.134ZM28.195 91.087C22.7811 91.087 17.945 90.0828 13.6869 88.0743C9.42875 86.1266 6.08307 83.4182 3.64984 79.949C1.21661 76.4798 0 72.5237 0 68.0807C0 66.8635 0.0912459 65.281 0.273738 63.3334C0.45623 61.3249 0.699553 59.1034 1.00371 56.6689C1.30786 54.2344 1.64243 51.739 2.00741 49.1827C2.43323 46.5656 2.82863 44.0398 3.19361 41.6053L16.9718 43.4312C16.3634 47.509 15.816 51.2216 15.3293 54.5691C14.9035 57.8557 14.5689 60.6554 14.3256 62.9682C14.0823 65.2202 13.9606 66.8939 13.9606 67.9894C13.9606 70.2414 14.5081 72.189 15.6031 73.8323C16.698 75.5365 18.31 76.845 20.4391 77.758C22.5682 78.6709 25.1535 79.1274 28.195 79.1274C31.419 79.1274 33.9739 78.6405 35.8597 77.6667C37.7454 76.7537 39.0837 75.506 39.8745 73.9236C40.6653 72.402 41.0607 70.6674 41.0607 68.7198V22.5254H55.0214L55.0213 68.7198C55.0213 73.2237 53.8655 77.1493 51.554 80.4968C49.2424 83.8443 46.0488 86.431 41.9732 88.2569C37.9583 90.1436 33.3656 91.087 28.195 91.087ZM54.8388 68.4459L55.0213 56.4863H61.4998C63.3855 56.4863 64.8455 56.2124 65.8796 55.6646C66.9137 55.056 67.6133 53.8692 67.9783 52.1041C68.4041 50.2782 68.617 47.5394 68.617 43.8876V22.5254H82.5776V43.8876C82.5776 48.1321 82.1591 51.807 81.3221 54.9125C81.0309 55.9929 80.689 57.0044 80.2965 57.947C79.0036 60.9997 77.1393 63.3707 74.7034 65.0598C74.274 65.3576 73.8268 65.6342 73.3618 65.8897C70.2594 67.5938 66.3054 68.4459 61.4998 68.4459H54.8388ZM119.623 68.4459V56.4863C119.988 56.4863 120.262 56.6385 120.445 56.9428C120.688 57.1862 120.871 57.5818 120.992 58.1296C121.175 58.6165 121.296 59.2251 121.357 59.9555C121.418 60.6859 121.448 61.5075 121.448 62.4205C121.448 63.3334 121.418 64.1855 121.357 64.9767C121.296 65.7071 121.175 66.3461 120.992 66.8939C120.871 67.3808 120.688 67.7764 120.445 68.0807C120.262 68.3242 119.988 68.4459 119.623 68.4459Z" fill="white"/>
<path d="M119.206 68.4459V56.4863H137.181L128.695 63.516V22.5247H142.656V68.4459H119.206ZM119.206 68.4459C118.901 68.4459 118.628 68.3242 118.384 68.0807C118.141 67.7764 117.958 67.3808 117.837 66.8939C117.715 66.3461 117.624 65.7071 117.563 64.9767C117.441 64.1855 117.381 63.3334 117.381 62.4205C117.381 61.2032 117.441 60.1685 117.563 59.3164C117.685 58.4035 117.898 57.7036 118.202 57.2167C118.445 56.7297 118.78 56.4863 119.206 56.4863V68.4459Z" fill="white"/>
<path d="M193.202 68.4459V56.4863V22.5247H207.072V63.516L198.677 56.4863H219.025V68.4459H193.202ZM153.054 91.9999C152.385 91.9999 151.564 91.9391 150.59 91.8173C149.617 91.7565 148.613 91.6956 147.579 91.6348L148.035 79.8577C149.009 79.8577 149.952 79.8882 150.864 79.949C151.777 80.0099 152.446 80.0403 152.871 80.0403C155.122 80.0403 156.886 79.1578 158.164 77.3928C159.502 75.6278 160.171 73.0715 160.171 69.724V22.5247H174.132V56.4863V68.4459V69.724C174.132 74.0453 173.25 77.8797 171.486 81.2272C169.722 84.6355 167.258 87.2831 164.095 89.1698C160.932 91.0566 157.251 91.9999 153.054 91.9999ZM219.025 68.4459V56.4863C219.329 56.4863 219.572 56.6385 219.755 56.9428C219.998 57.1862 220.181 57.5818 220.302 58.1296C220.485 58.6165 220.606 59.2251 220.667 59.9555C220.789 60.6859 220.85 61.5075 220.85 62.4205C220.85 63.3334 220.789 64.1855 220.667 64.9767C220.606 65.7071 220.485 66.3461 220.302 66.8939C220.181 67.3808 219.998 67.7764 219.755 68.0807C219.572 68.3242 219.329 68.4459 219.025 68.4459Z" fill="white"/>
<path d="M218.602 68.4459V56.4863H236.577L228.091 63.516V22.5247H242.052V68.4459H218.602ZM218.602 68.4459C218.298 68.4459 218.024 68.3242 217.781 68.0807C217.537 67.7764 217.355 67.3808 217.233 66.8939C217.112 66.3461 217.02 65.7071 216.959 64.9767C216.838 64.1855 216.777 63.3334 216.777 62.4205C216.777 61.2032 216.838 60.1685 216.959 59.3164C217.081 58.4035 217.294 57.7036 217.598 57.2167C217.841 56.7297 218.176 56.4863 218.602 56.4863V68.4459Z" fill="white"/>
<path d="M174.132 68.4459H193.202V56.4863H174.132V68.4459Z" fill="white"/>
<path d="M110.134 68.4459V56.4863V43.4312V22.5247H96.1733V43.4312V56.4863H103.838L96.1733 63.2421V56.4863H86.41C85.2542 56.4863 84.1288 56.2733 83.0339 55.8472C82.4633 55.5935 81.8927 55.2819 81.3221 54.9125C81.0309 55.9929 80.689 57.0044 80.2965 57.947C79.0036 60.9997 77.1393 63.3707 74.7034 65.0598C75.9204 65.8189 77.1764 66.4607 78.4715 66.9852C81.0873 67.959 83.7334 68.4459 86.41 68.4459H110.134Z" fill="white"/>
<path d="M96.1733 63.2421L103.838 56.4863H96.1733V63.2421Z" fill="white"/>
<path d="M228.103 77.4373V91.5495H242.052V81.0673L228.103 77.4373Z" fill="#F3E008"/>
<path d="M178.99 77.4373V91.5495H192.94V81.0673L178.99 77.4373Z" fill="white"/>
<path d="M196.311 77.4373V91.5495H210.26V81.0673L196.311 77.4373Z" fill="white"/>
<path d="M160.129 0.000244141V14.1125H174.079V3.63025L160.129 0.000244141Z" fill="white"/>
<path d="M128.531 0.000244141V14.1125H142.48V3.63025L128.531 0.000244141Z" fill="white"/>
</svg>
