<svg width="340" height="126" viewBox="0 0 340 126" fill="none" xmlns="http://www.w3.org/2000/svg">
<path d="M154.782 22.6939C154.782 17.2317 158.381 11.7019 165.258 11.7019C170.632 11.7019 173.843 15.5519 173.843 21.9949V48.353H185.522V21.1212C185.522 8.2916 178.207 0.00537109 166.888 0.00537109C161.686 0.00537109 156.961 1.72462 153.329 4.89256L152.286 1.13839H143.108V48.353H154.787V22.6995L154.782 22.6939Z" fill="#09090B"/>
<path d="M68.1566 0C55.063 0 44.8032 10.8454 44.8032 24.6952C44.8032 38.5451 55.0574 49.3961 68.1511 49.3961C81.2447 49.3961 91.5044 38.5451 91.5044 24.6952C91.5044 10.8454 81.2502 0 68.1566 0ZM68.1566 37.6995C61.4905 37.6995 56.6546 32.2318 56.6546 24.6952C56.6546 17.1587 61.4905 11.6966 68.1566 11.6966C74.8227 11.6966 79.6641 17.1643 79.6641 24.6952C79.6641 32.2261 74.8282 37.6995 68.1566 37.6995Z" fill="#09090B"/>
<path d="M11.6795 22.6941C11.6795 17.232 15.2787 11.7022 22.1499 11.7022C27.5238 11.7022 30.7348 15.5522 30.7348 21.9952V48.3533H42.4143V21.1214C42.4143 8.29187 35.1049 0 23.7859 0C18.584 0 13.859 1.71925 10.2265 4.88719L9.18385 1.13302H0V48.3476H11.6795V22.6941Z" fill="#09090B"/>
<path d="M117.36 0C104.261 0 94.0063 10.8454 94.0063 24.6952C94.0063 38.5451 104.261 49.3961 117.36 49.3961C130.459 49.3961 140.713 38.5451 140.713 24.6952C140.713 10.8454 130.453 0 117.36 0ZM117.36 37.6995C110.694 37.6995 105.858 32.2318 105.858 24.6952C105.858 17.1587 110.699 11.6966 117.36 11.6966C124.02 11.6966 128.862 17.1643 128.862 24.6952C128.862 32.2261 124.02 37.6995 117.36 37.6995Z" fill="#09090B"/>
<path d="M96.5077 76.7918V124.456H84.5716V118.433C83.0472 120.498 81.061 122.118 78.6035 123.292C76.1507 124.466 73.4808 125.057 70.603 125.057C66.9354 125.057 63.688 124.269 60.8703 122.691C58.048 121.114 55.8354 118.789 54.2232 115.724C52.6158 112.658 51.812 109 51.812 104.751V76.7871H63.665V103.028C63.665 106.812 64.598 109.728 66.4596 111.761C68.3211 113.799 70.8617 114.817 74.0767 114.817C77.2917 114.817 79.92 113.799 81.7816 111.761C83.6431 109.723 84.5762 106.812 84.5762 103.028V76.7871H96.5123L96.5077 76.7918Z" fill="#09090B"/>
<path d="M109.819 122.77C106.771 121.367 104.359 119.456 102.581 117.047C100.803 114.639 99.8279 111.972 99.6616 109.047H111.598C111.824 110.882 112.711 112.404 114.263 113.606C115.815 114.808 117.746 115.413 120.06 115.413C122.374 115.413 124.079 114.953 125.349 114.038C126.619 113.122 127.252 111.944 127.252 110.512C127.252 108.962 126.476 107.803 124.924 107.028C123.372 106.253 120.905 105.408 117.515 104.488C114.014 103.629 111.15 102.741 108.923 101.821C106.692 100.905 104.775 99.4969 103.168 97.6048C101.56 95.7126 100.756 93.1585 100.756 89.947C100.756 87.3084 101.505 84.8998 103.001 82.7213C104.498 80.5428 106.641 78.8197 109.436 77.5567C112.231 76.2937 115.515 75.6646 119.298 75.6646C124.883 75.6646 129.34 77.0825 132.671 79.923C136.001 82.7635 137.835 86.59 138.172 91.4072H126.827C126.656 89.5151 125.88 88.008 124.499 86.8905C123.118 85.7731 121.27 85.2144 118.956 85.2144C116.813 85.2144 115.159 85.6182 114.004 86.4163C112.845 87.2192 112.268 88.3366 112.268 89.7733C112.268 91.3791 113.057 92.5998 114.637 93.4308C116.217 94.2618 118.67 95.107 122 95.9709C125.386 96.8301 128.181 97.7221 130.379 98.6377C132.578 99.5579 134.486 100.976 136.093 102.896C137.701 104.816 138.532 107.356 138.592 110.512C138.592 113.263 137.844 115.733 136.348 117.911C134.851 120.09 132.708 121.799 129.913 123.029C127.118 124.264 123.862 124.879 120.134 124.879C116.406 124.879 112.854 124.174 109.805 122.77H109.819Z" fill="#09090B"/>
<path d="M154.519 76.4355V124.1H142.666V76.4355H154.519Z" fill="#09090B"/>
<path d="M154.519 60.3271V72.7926H142.666V64.4588L154.519 60.3271Z" fill="#09090B"/>
<path d="M198.12 81.1251C201.561 84.7122 203.284 89.7171 203.284 96.14V124.104H191.431V97.7739C191.431 93.9897 190.498 91.0787 188.637 89.041C186.775 87.0034 184.235 85.9845 181.02 85.9845C177.805 85.9845 175.162 87.0034 173.273 89.041C171.384 91.0787 170.437 93.9897 170.437 97.7739V124.104H158.584V76.4394H170.437V82.3787C172.017 80.3128 174.035 78.693 176.488 77.5193C178.941 76.3455 181.639 75.7539 184.572 75.7539C190.156 75.7539 194.674 77.5474 198.115 81.1298L198.12 81.1251Z" fill="#09090B"/>
<path d="M253.652 103.882H219.368C219.65 107.324 220.837 110.019 222.925 111.972C225.013 113.921 227.581 114.897 230.63 114.897C235.032 114.897 238.164 112.977 240.025 109.132H252.807C251.453 113.723 248.857 117.494 245.019 120.447C241.18 123.4 236.468 124.879 230.884 124.879C226.366 124.879 222.32 123.86 218.735 121.822C215.151 119.785 212.356 116.907 210.356 113.174C208.351 109.446 207.349 105.145 207.349 100.267C207.349 95.389 208.337 91.0037 210.31 87.2758C212.287 83.5479 215.049 80.6792 218.606 78.6697C222.163 76.6602 226.251 75.6602 230.879 75.6602C235.508 75.6602 239.328 76.6367 242.857 78.5852C246.381 80.5384 249.121 83.3038 251.07 86.8861C253.019 90.4732 253.989 94.5861 253.989 99.2343C253.989 100.953 253.874 102.502 253.652 103.882ZM241.716 95.7975C241.66 92.6987 240.557 90.2197 238.413 88.3557C236.265 86.4918 233.642 85.5574 230.542 85.5574C227.609 85.5574 225.138 86.4589 223.137 88.2665C221.133 90.0741 219.904 92.5813 219.456 95.7928H241.721L241.716 95.7975Z" fill="#09090B"/>
<path d="M268.216 122.77C265.167 121.367 262.756 119.456 260.977 117.047C259.199 114.639 258.224 111.972 258.058 109.047H269.994C270.22 110.882 271.107 112.404 272.659 113.606C274.211 114.808 276.142 115.413 278.456 115.413C280.771 115.413 282.475 114.953 283.745 114.038C285.016 113.122 285.649 111.944 285.649 110.512C285.649 108.962 284.872 107.803 283.32 107.028C281.768 106.253 279.302 105.408 275.911 104.488C272.41 103.629 269.546 102.741 267.319 101.821C265.088 100.905 263.171 99.4969 261.564 97.6048C259.956 95.7126 259.153 93.1585 259.153 89.947C259.153 87.3084 259.901 84.8998 261.398 82.7213C262.894 80.5428 265.038 78.8197 267.832 77.5567C270.627 76.2937 273.911 75.6646 277.694 75.6646C283.279 75.6646 287.736 77.0825 291.067 79.923C294.397 82.7635 296.231 86.59 296.568 91.4072H285.224C285.053 89.5151 284.277 88.008 282.895 86.8905C281.514 85.7731 279.667 85.2144 277.352 85.2144C275.209 85.2144 273.555 85.6182 272.401 86.4163C271.241 87.2192 270.664 88.3366 270.664 89.7733C270.664 91.3791 271.454 92.5998 273.033 93.4308C274.613 94.2618 277.066 95.107 280.396 95.9709C283.782 96.8301 286.577 97.7221 288.776 98.6377C290.974 99.5579 292.882 100.976 294.49 102.896C296.097 104.816 296.929 107.356 296.989 110.512C296.989 113.263 296.24 115.733 294.744 117.911C293.247 120.09 291.104 121.799 288.309 123.029C285.515 124.264 282.258 124.879 278.53 124.879C274.803 124.879 271.25 124.174 268.202 122.77H268.216Z" fill="#09090B"/>
<path d="M311.227 122.77C308.178 121.367 305.767 119.456 303.988 117.047C302.21 114.639 301.235 111.972 301.069 109.047H313.005C313.232 110.882 314.118 112.404 315.67 113.606C317.223 114.808 319.153 115.413 321.468 115.413C323.782 115.413 325.486 114.953 326.757 114.038C328.027 113.122 328.66 111.944 328.66 110.512C328.66 108.962 327.884 107.803 326.332 107.028C324.78 106.253 322.313 105.408 318.922 104.488C315.421 103.629 312.557 102.741 310.331 101.821C308.1 100.905 306.183 99.4969 304.575 97.6048C302.968 95.7126 302.164 93.1585 302.164 89.947C302.164 87.3084 302.912 84.8998 304.409 82.7213C305.905 80.5428 308.049 78.8197 310.843 77.5567C313.638 76.2937 316.922 75.6646 320.705 75.6646C326.29 75.6646 330.748 77.0825 334.078 79.923C337.409 82.7635 339.242 86.59 339.58 91.4072H328.235C328.064 89.5151 327.288 88.008 325.907 86.8905C324.526 85.7731 322.678 85.2144 320.364 85.2144C318.22 85.2144 316.567 85.6182 315.412 86.4163C314.252 87.2192 313.675 88.3366 313.675 89.7733C313.675 91.3791 314.465 92.5998 316.045 93.4308C317.624 94.2618 320.077 95.107 323.408 95.9709C326.794 96.8301 329.588 97.7221 331.787 98.6377C333.986 99.5579 335.893 100.976 337.501 102.896C339.108 104.816 339.94 107.356 340 110.512C340 113.263 339.252 115.733 337.755 117.911C336.258 120.09 334.115 121.799 331.32 123.029C328.526 124.264 325.269 124.879 321.541 124.879C317.814 124.879 314.262 124.174 311.213 122.77H311.227Z" fill="#09090B"/>
<path d="M11.8529 60.4336H0V97.3746H11.8529V60.4336Z" fill="#09090B"/>
<path d="M45.9264 87.2333C44.0372 83.5335 41.4689 80.6789 38.2215 78.6741C34.9742 76.6646 31.3481 75.6646 27.3433 75.6646C23.9019 75.6646 20.8394 76.3829 18.1602 77.8149C15.4811 79.2516 13.3793 81.1156 11.855 83.4068V97.3747H12.0767C12.34 95.6892 12.8435 94.1585 13.5918 92.7829C14.7466 90.6607 16.271 89.0409 18.1648 87.9235C20.0541 86.806 22.0727 86.2473 24.216 86.2473C26.3594 86.2473 28.4611 86.7919 30.355 87.8812C32.2443 88.9705 33.7686 90.5621 34.928 92.6561C36.0828 94.7501 36.6649 97.2291 36.6649 100.098C36.6649 102.967 36.0875 105.549 34.928 107.671C33.7686 109.793 32.2489 111.427 30.355 112.577C28.4657 113.728 26.4194 114.296 24.216 114.296C22.0127 114.296 20.0541 113.737 18.1648 112.62C16.5527 111.667 15.2085 110.343 14.1276 108.657H11.8596V117.31C13.4394 119.55 15.5411 121.371 18.1648 122.775C20.7886 124.179 23.8511 124.883 27.3479 124.883C31.3527 124.883 34.9788 123.85 38.2262 121.785C41.4689 119.719 44.0372 116.808 45.931 113.052C47.8203 109.296 48.7672 104.981 48.7672 100.103C48.7672 95.2243 47.8203 90.9377 45.931 87.238L45.9264 87.2333Z" fill="#09090B"/>
<path d="M11.9081 124.105H0.0551758L12.0698 97.3755H23.9181L11.9081 124.105Z" fill="#09090B"/>
</svg>
