<svg width="280" height="137" viewBox="0 0 280 137" fill="none" xmlns="http://www.w3.org/2000/svg">
<g clip-path="url(#clip0_2001_40266)">
<path d="M233.605 35.2515C233.605 27.1016 239.037 18.8506 249.416 18.8506C257.526 18.8506 262.373 24.5951 262.373 34.2088V73.5373H280V32.905C280 13.762 268.96 1.39819 251.877 1.39819C244.026 1.39819 236.894 3.96348 231.412 8.69034L229.838 3.08876H215.986V73.5373H233.613V35.2601L233.605 35.2515Z" fill="#F3E008"/>
<path d="M102.866 1.38599C83.1042 1.38599 67.6199 17.5683 67.6199 38.2337C67.6199 58.8989 83.0959 75.0896 102.857 75.0896C122.619 75.0896 138.104 58.8989 138.104 38.2337C138.104 17.5683 122.627 1.38599 102.866 1.38599ZM102.866 57.6373C92.8049 57.6373 85.5065 49.4788 85.5065 38.2337C85.5065 26.9884 92.8049 18.8384 102.866 18.8384C112.926 18.8384 120.233 26.9968 120.233 38.2337C120.233 49.4706 112.935 57.6373 102.866 57.6373Z" fill="#F3E008"/>
<path d="M17.6272 35.2478C17.6272 27.0977 23.0593 18.8468 33.4298 18.8468C41.5402 18.8468 46.3865 24.5913 46.3865 34.2048V73.5337H64.0137V32.9012C64.0137 13.7583 52.982 1.38599 35.8989 1.38599C28.0478 1.38599 20.9166 3.95128 15.4342 8.67814L13.8607 3.07655H0V73.5254H17.6272V35.2478Z" fill="#F3E008"/>
<path d="M177.126 1.38599C157.356 1.38599 141.88 17.5683 141.88 38.2337C141.88 58.8989 157.356 75.0896 177.126 75.0896C196.896 75.0896 212.372 58.8989 212.372 38.2337C212.372 17.5683 196.887 1.38599 177.126 1.38599ZM177.126 57.6373C167.065 57.6373 159.767 49.4788 159.767 38.2337C159.767 26.9884 167.074 18.8384 177.126 18.8384C187.178 18.8384 194.485 26.9968 194.485 38.2337C194.485 49.4706 187.178 57.6373 177.126 57.6373Z" fill="#F3E008"/>
<path d="M79.4766 96.6513V135.458H69.647V130.554C68.3915 132.236 66.7557 133.555 64.7321 134.51C62.7122 135.466 60.5133 135.948 58.1435 135.948C55.123 135.948 52.449 135.306 50.1285 134.021C47.8042 132.737 45.9819 130.844 44.6545 128.348C43.3305 125.852 42.6687 122.875 42.6687 119.415V96.6475H52.4299V118.012C52.4299 121.093 53.1983 123.467 54.7313 125.122C56.2643 126.781 58.3567 127.611 61.0042 127.611C63.6518 127.611 65.8161 126.781 67.3494 125.122C68.8824 123.463 69.6508 121.093 69.6508 118.012V96.6475H79.4804L79.4766 96.6513Z" fill="white"/>
<path d="M90.4399 134.092C87.9295 132.949 85.9437 131.394 84.4791 129.433C83.0145 127.472 82.2118 125.3 82.075 122.919H91.9045C92.091 124.413 92.8212 125.652 94.0994 126.631C95.3778 127.609 96.9678 128.102 98.8737 128.102C100.779 128.102 102.183 127.728 103.229 126.982C104.275 126.237 104.797 125.277 104.797 124.111C104.797 122.85 104.157 121.906 102.879 121.275C101.601 120.644 99.5699 119.956 96.7775 119.207C93.8941 118.507 91.5355 117.785 89.7021 117.036C87.8646 116.29 86.2861 115.144 84.9621 113.603C83.6385 112.063 82.9764 109.983 82.9764 107.369C82.9764 105.22 83.5927 103.259 84.8253 101.485C86.0576 99.7119 87.8229 98.309 90.1243 97.2806C92.4257 96.2523 95.1303 95.74 98.2459 95.74C102.845 95.74 106.516 96.8947 109.258 99.2072C112.001 101.52 113.512 104.635 113.789 108.557H104.447C104.306 107.017 103.667 105.79 102.529 104.88C101.392 103.97 99.8702 103.515 97.9643 103.515C96.1994 103.515 94.8375 103.844 93.8865 104.494C92.9316 105.148 92.4563 106.057 92.4563 107.227C92.4563 108.534 93.1066 109.528 94.4077 110.205C95.7087 110.881 97.7285 111.57 100.471 112.273C103.26 112.972 105.561 113.699 107.372 114.444C109.182 115.193 110.754 116.348 112.078 117.911C113.401 119.475 114.086 121.543 114.136 124.111C114.136 126.352 113.519 128.362 112.287 130.136C111.054 131.91 109.289 133.301 106.988 134.302C104.686 135.308 102.004 135.809 98.9345 135.809C95.8646 135.809 92.9393 135.235 90.4285 134.092H90.4399Z" fill="white"/>
<path d="M127.25 96.3616V135.168H117.489V96.3616H127.25Z" fill="white"/>
<path d="M127.25 83.2488V93.3978H117.489V86.6126L127.25 83.2488Z" fill="white"/>
<path d="M163.158 100.188C165.992 103.108 167.411 107.183 167.411 112.412V135.18H157.649V113.743C157.649 110.662 156.881 108.292 155.348 106.633C153.815 104.974 151.723 104.144 149.075 104.144C146.427 104.144 144.251 104.974 142.696 106.633C141.14 108.292 140.36 110.662 140.36 113.743V135.18H130.599V96.3728H140.36V101.209C141.661 99.5266 143.323 98.2077 145.343 97.2519C147.363 96.2964 149.585 95.8147 152 95.8147C156.599 95.8147 160.32 97.2752 163.154 100.192L163.158 100.188Z" fill="white"/>
<path d="M208.89 118.705H180.657C180.889 121.507 181.866 123.701 183.586 125.291C185.305 126.878 187.42 127.673 189.931 127.673C193.556 127.673 196.135 126.109 197.668 122.979H208.194C207.08 126.717 204.942 129.787 201.781 132.191C198.619 134.596 194.739 135.8 190.14 135.8C186.42 135.8 183.087 134.97 180.135 133.311C177.184 131.652 174.882 129.309 173.235 126.27C171.584 123.235 170.759 119.733 170.759 115.762C170.759 111.79 171.572 108.22 173.197 105.185C174.825 102.149 177.1 99.8139 180.029 98.1779C182.958 96.5418 186.325 95.7275 190.136 95.7275C193.948 95.7275 197.094 96.5227 200 98.1091C202.903 99.6991 205.158 101.951 206.764 104.867C208.369 107.788 209.168 111.136 209.168 114.921C209.168 116.32 209.073 117.581 208.89 118.705ZM199.06 112.123C199.015 109.6 198.106 107.581 196.341 106.064C194.572 104.546 192.411 103.785 189.859 103.785C187.443 103.785 185.408 104.52 183.761 105.991C182.11 107.463 181.098 109.504 180.729 112.119H199.064L199.06 112.123Z" fill="white"/>
<path d="M220.884 134.092C218.373 132.949 216.387 131.394 214.922 129.433C213.458 127.472 212.655 125.3 212.518 122.919H222.348C222.534 124.413 223.265 125.652 224.543 126.631C225.821 127.609 227.411 128.102 229.317 128.102C231.223 128.102 232.626 127.728 233.673 126.982C234.719 126.237 235.24 125.277 235.24 124.111C235.24 122.85 234.601 121.906 233.323 121.275C232.045 120.644 230.013 119.956 227.221 119.207C224.338 118.507 221.979 117.785 220.145 117.036C218.308 116.29 216.729 115.144 215.406 113.603C214.082 112.063 213.42 109.983 213.42 107.369C213.42 105.22 214.036 103.259 215.269 101.485C216.501 99.7119 218.266 98.309 220.568 97.2806C222.869 96.2523 225.574 95.74 228.689 95.74C233.289 95.74 236.959 96.8947 239.702 99.2072C242.445 101.52 243.955 104.635 244.233 108.557H234.89C234.749 107.017 234.11 105.79 232.973 104.88C231.835 103.97 230.314 103.515 228.408 103.515C226.643 103.515 225.281 103.844 224.33 104.494C223.375 105.148 222.9 106.057 222.9 107.227C222.9 108.534 223.55 109.528 224.851 110.205C226.152 110.881 228.172 111.57 230.915 112.273C233.703 112.972 236.005 113.699 237.815 114.444C239.626 115.193 241.197 116.348 242.521 117.911C243.845 119.475 244.53 121.543 244.579 124.111C244.579 126.352 243.963 128.362 242.73 130.136C241.498 131.91 239.732 133.301 237.431 134.302C235.13 135.308 232.448 135.809 229.378 135.809C226.308 135.809 223.383 135.235 220.872 134.092H220.884Z" fill="white"/>
<path d="M256.305 134.092C253.794 132.949 251.808 131.394 250.344 129.433C248.879 127.472 248.077 125.3 247.939 122.919H257.769C257.956 124.413 258.686 125.652 259.964 126.631C261.242 127.609 262.832 128.102 264.738 128.102C266.644 128.102 268.048 127.728 269.094 126.982C270.14 126.237 270.661 125.277 270.661 124.111C270.661 122.85 270.022 121.906 268.744 121.275C267.466 120.644 265.434 119.956 262.642 119.207C259.759 118.507 257.4 117.785 255.567 117.036C253.729 116.29 252.151 115.144 250.827 113.603C249.503 112.063 248.841 109.983 248.841 107.369C248.841 105.22 249.458 103.259 250.69 101.485C251.922 99.7119 253.687 98.309 255.989 97.2806C258.29 96.2523 260.995 95.74 264.11 95.74C268.71 95.74 272.381 96.8947 275.123 99.2072C277.866 101.52 279.376 104.635 279.654 108.557H270.311C270.171 107.017 269.531 105.79 268.394 104.88C267.257 103.97 265.735 103.515 263.829 103.515C262.064 103.515 260.702 103.844 259.751 104.494C258.796 105.148 258.321 106.057 258.321 107.227C258.321 108.534 258.971 109.528 260.272 110.205C261.573 110.881 263.593 111.57 266.336 112.273C269.124 112.972 271.426 113.699 273.236 114.444C275.047 115.193 276.618 116.348 277.942 117.911C279.266 119.475 279.951 121.543 280 124.111C280 126.352 279.384 128.362 278.151 130.136C276.919 131.91 275.154 133.301 272.852 134.302C270.551 135.308 267.869 135.809 264.799 135.809C261.729 135.809 258.804 135.235 256.293 134.092H256.305Z" fill="white"/>
<path d="M9.76118 83.3359H0V113.412H9.76118V83.3359Z" fill="white"/>
<path d="M37.8214 105.159C36.2655 102.147 34.1506 99.8223 31.4762 98.19C28.802 96.5539 25.8158 95.74 22.5177 95.74C19.6837 95.74 17.1616 96.3248 14.9552 97.4906C12.7489 98.6603 11.018 100.178 9.7627 102.043V113.416H9.9453C10.1621 112.043 10.5768 110.797 11.193 109.677C12.144 107.949 13.3994 106.63 14.959 105.721C16.5149 104.811 18.1773 104.356 19.9423 104.356C21.7074 104.356 23.4383 104.799 24.9979 105.686C26.5538 106.573 27.8091 107.869 28.7639 109.574C29.715 111.279 30.1943 113.297 30.1943 115.633C30.1943 117.968 29.7188 120.071 28.7639 121.798C27.8091 123.526 26.5576 124.856 24.9979 125.793C23.4421 126.73 21.7569 127.192 19.9423 127.192C18.1278 127.192 16.5149 126.737 14.959 125.828C13.6314 125.052 12.5244 123.974 11.6343 122.601H9.76651V129.646C11.0675 131.47 12.7983 132.953 14.959 134.096C17.1198 135.239 19.6418 135.812 22.5215 135.812C25.8196 135.812 28.8058 134.971 31.48 133.289C34.1506 131.607 36.2655 129.237 37.8252 126.179C39.3812 123.121 40.161 119.608 40.161 115.637C40.161 111.665 39.3812 108.175 37.8252 105.163L37.8214 105.159Z" fill="white"/>
<path d="M9.80611 135.176H0.0449219L9.93927 113.414H19.6966L9.80611 135.176Z" fill="#F3E008"/>
</g>
<defs>
<clipPath id="clip0_2001_40266">
<rect width="280" height="136.818" fill="white"/>
</clipPath>
</defs>
</svg>
