<svg width="220" height="184" viewBox="0 0 220 184" fill="none" xmlns="http://www.w3.org/2000/svg">
<path d="M207.183 24.0689V39.4869C207.183 47.1146 200.979 53.3202 193.353 53.3202H126.743V40.1734C126.743 32.4781 123.359 25.2258 117.46 20.2747C111.57 15.3303 103.79 13.2684 96.1139 14.618C85.4939 16.488 77.1019 24.8813 75.2324 35.5042C73.8807 43.1827 75.942 50.9655 80.8876 56.8567C85.8374 62.7569 93.0878 66.1408 100.781 66.1408H113.73C113.119 70.694 110.947 74.8903 107.547 78.0498C103.864 81.472 99.0725 83.3562 94.0551 83.3562H93.077V96.1769H94.0551C102.466 96.1769 110.457 92.9724 116.555 87.153C122.402 81.5738 125.945 74.1421 126.593 66.1408H193.353C208.046 66.1408 220 54.1843 220 39.4878V24.0698H207.183V24.0689ZM113.925 40.1725V53.3193H100.781C96.8852 53.3193 93.2113 51.6044 90.703 48.6151C88.1622 45.5866 87.1491 41.7189 87.852 37.727C88.7759 32.4765 93.087 28.1634 98.3378 27.2393C102.328 26.5328 106.193 27.5454 109.222 30.091C112.211 32.5999 113.925 36.2749 113.925 40.1717V40.1725Z" fill="#09090B"/>
<path d="M32.687 81.1136C50.7101 81.1136 65.3736 66.4463 65.3736 48.4185V24.1309H52.558V48.4185C52.558 59.3774 43.644 68.2938 32.6879 68.2938C21.7318 68.2938 12.8178 59.3774 12.8178 48.4185V24.1309H0.000488281V48.4185C0.000488281 66.4471 14.6631 81.1136 32.687 81.1136Z" fill="#09090B"/>
<path d="M32.6868 13.9917C36.5426 13.9917 39.6796 10.8531 39.6796 6.99627C39.6796 3.13948 36.5426 0 32.6868 0C28.831 0 25.6924 3.13865 25.6924 6.99627C25.6924 10.8539 28.8302 13.9917 32.6868 13.9917Z" fill="#09090B"/>
<path d="M194.261 13.9917C198.118 13.9917 201.255 10.8531 201.255 6.99627C201.255 3.13948 198.118 0 194.261 0C190.404 0 187.267 3.13865 187.267 6.99627C187.267 10.8539 190.404 13.9917 194.261 13.9917Z" fill="#09090B"/>
<path d="M100.062 162.262V151.402H108.684V162.262H100.062ZM25.6166 182.822C20.6978 182.822 16.304 181.91 12.4352 180.086C8.56649 178.317 5.52677 175.858 3.31606 172.708C1.10535 169.557 0 165.965 0 161.93C0 160.825 0.0829015 159.388 0.248705 157.62C0.414508 155.796 0.635579 153.778 0.911917 151.568C1.18826 149.357 1.49223 147.091 1.82383 144.77C2.21071 142.393 2.56995 140.1 2.90155 137.889L15.4197 139.547C14.867 143.25 14.3696 146.621 13.9275 149.661C13.5406 152.645 13.2366 155.188 13.0155 157.288C12.7945 159.333 12.6839 160.853 12.6839 161.847C12.6839 163.892 13.1813 165.661 14.1762 167.153C15.171 168.701 16.6356 169.889 18.57 170.718C20.5043 171.547 22.8532 171.961 25.6166 171.961C28.5458 171.961 30.867 171.519 32.5803 170.635C34.2936 169.806 35.5095 168.673 36.228 167.236C36.9465 165.854 37.3057 164.279 37.3057 162.511V120.563H49.9897L49.9896 162.511C49.9896 166.601 48.9396 170.165 46.8394 173.205C44.7392 176.245 41.8377 178.594 38.1347 180.252C34.4871 181.965 30.3143 182.822 25.6166 182.822ZM49.8238 162.262L49.9896 151.402H55.8757C57.589 151.402 58.9154 151.153 59.8549 150.656C60.7945 150.103 61.4301 149.025 61.7617 147.423C62.1485 145.765 62.342 143.278 62.342 139.961V120.563H75.0259V139.961C75.0259 143.816 74.6457 147.153 73.8852 149.973C73.6206 150.954 73.31 151.872 72.9534 152.728C71.7788 155.5 70.0849 157.653 67.8718 159.187C67.4816 159.458 67.0753 159.709 66.6529 159.941C63.8342 161.488 60.2418 162.262 55.8757 162.262H49.8238ZM108.684 162.262V151.402C109.016 151.402 109.264 151.54 109.43 151.816C109.651 152.037 109.817 152.397 109.927 152.894C110.093 153.336 110.204 153.889 110.259 154.552C110.314 155.215 110.342 155.961 110.342 156.79C110.342 157.62 110.314 158.393 110.259 159.112C110.204 159.775 110.093 160.355 109.927 160.853C109.817 161.295 109.651 161.654 109.43 161.93C109.264 162.151 109.016 162.262 108.684 162.262Z" fill="#0928FF"/>
<path d="M108.304 162.262V151.402H124.636L116.926 157.785V120.562H129.61V162.262H108.304ZM108.304 162.262C108.028 162.262 107.779 162.151 107.558 161.93C107.337 161.654 107.171 161.295 107.061 160.853C106.95 160.355 106.867 159.775 106.812 159.112C106.701 158.393 106.646 157.62 106.646 156.79C106.646 155.685 106.701 154.746 106.812 153.972C106.923 153.143 107.116 152.507 107.392 152.065C107.613 151.623 107.917 151.402 108.304 151.402V162.262Z" fill="#0928FF"/>
<path d="M175.534 162.262V151.402V120.562H188.135V157.785L180.508 151.402H198.995V162.262H175.534ZM139.057 183.651C138.449 183.651 137.703 183.595 136.819 183.485C135.935 183.43 135.023 183.374 134.083 183.319L134.498 172.625C135.382 172.625 136.239 172.652 137.068 172.708C137.897 172.763 138.505 172.79 138.891 172.79C140.936 172.79 142.539 171.989 143.7 170.386C144.916 168.784 145.524 166.462 145.524 163.423V120.562H158.207V151.402V162.262V163.423C158.207 167.347 157.406 170.828 155.803 173.868C154.201 176.963 151.962 179.367 149.088 181.081C146.214 182.794 142.871 183.651 139.057 183.651ZM198.995 162.262V151.402C199.271 151.402 199.492 151.54 199.658 151.816C199.879 152.037 200.045 152.397 200.156 152.894C200.321 153.336 200.432 153.889 200.487 154.552C200.598 155.215 200.653 155.961 200.653 156.79C200.653 157.62 200.598 158.393 200.487 159.112C200.432 159.775 200.321 160.355 200.156 160.853C200.045 161.295 199.879 161.654 199.658 161.93C199.492 162.151 199.271 162.262 198.995 162.262Z" fill="#0928FF"/>
<path d="M198.611 162.262V151.402H214.942L207.233 157.785V120.562H219.916V162.262H198.611ZM198.611 162.262C198.334 162.262 198.086 162.151 197.865 161.93C197.644 161.654 197.478 161.295 197.367 160.853C197.257 160.355 197.174 159.775 197.119 159.112C197.008 158.393 196.953 157.62 196.953 156.79C196.953 155.685 197.008 154.746 197.119 153.972C197.229 153.143 197.423 152.507 197.699 152.065C197.92 151.623 198.224 151.402 198.611 151.402V162.262Z" fill="#0928FF"/>
<path d="M158.207 162.262H175.534V151.402H158.207V162.262Z" fill="#0928FF"/>
<path d="M100.062 162.262V151.402V139.547V120.562H87.3783V139.547V151.402H94.342L87.3783 157.537V151.402H78.5078C77.4577 151.402 76.4352 151.208 75.4404 150.822C74.922 150.591 74.4036 150.308 73.8852 149.973C73.6206 150.954 73.31 151.872 72.9534 152.728C71.7788 155.5 70.0849 157.653 67.8718 159.187C68.9775 159.877 70.1187 160.459 71.2953 160.936C73.6719 161.82 76.076 162.262 78.5078 162.262H100.062Z" fill="#0928FF"/>
<path d="M87.3783 157.537L94.342 151.402H87.3783V157.537Z" fill="#0928FF"/>
<path d="M207.243 170.426V183.241H219.917V173.722L207.243 170.426Z" fill="#0928FF"/>
<path d="M162.622 170.426V183.241H175.296V173.722L162.622 170.426Z" fill="#0928FF"/>
<path d="M178.358 170.426V183.241H191.032V173.722L178.358 170.426Z" fill="#0928FF"/>
<path d="M145.485 100.109V112.923H158.159V103.405L145.485 100.109Z" fill="#0928FF"/>
<path d="M116.776 100.109V112.923H129.45V103.405L116.776 100.109Z" fill="#0928FF"/>
</svg>
